<svg width="257" height="67" viewBox="0 0 257 67" fill="none" xmlns="http://www.w3.org/2000/svg">
<path d="M20.12 49.384C13.5067 49.384 8.64267 47.6987 5.528 44.328C2.456 40.9573 0.92 36.52 0.92 31.016C0.92 25.4693 1.85867 20.4347 3.736 15.912C5.656 11.3467 8.49333 7.61333 12.248 4.712C16.0027 1.768 20.056 0.295998 24.408 0.295998C28.8027 0.295998 32.2373 1.36266 34.712 3.496C37.2293 5.58666 38.488 8.424 38.488 12.008C38.488 15.5493 37.3787 18.4933 35.16 20.84C32.984 23.1867 30.424 24.36 27.48 24.36C24.536 24.36 22.2533 23.72 20.632 22.44C19.0107 21.1173 18.2 19.7307 18.2 18.28C18.2 16.7867 18.776 15.6347 19.928 14.824C21.1227 13.9707 22.8507 13.544 25.112 13.544C24.5573 14.0987 24.28 14.8453 24.28 15.784C24.28 16.68 24.5573 17.4693 25.112 18.152C25.6667 18.8347 26.52 19.176 27.672 19.176C28.824 19.176 29.976 18.5787 31.128 17.384C32.28 16.1467 32.856 14.5253 32.856 12.52C32.856 10.5147 32.2373 8.91466 31 7.72C29.8053 6.52533 28.0987 5.928 25.88 5.928C22.9787 5.928 20.3333 7.10133 17.944 9.448C15.5973 11.7947 13.8053 14.7813 12.568 18.408C11.3307 22.0347 10.712 25.8533 10.712 29.864C10.712 33.32 11.4587 36.3707 12.952 39.016C13.72 40.3813 14.8507 41.4693 16.344 42.28C17.88 43.0907 19.672 43.496 21.72 43.496C25.2187 43.496 28.5893 42.3867 31.832 40.168C35.0747 37.9067 37.8053 35.0053 40.024 31.464L42.2 35.368C39.6827 39.464 36.5253 42.8347 32.728 45.48C28.9307 48.0827 24.728 49.384 20.12 49.384ZM54.6925 18.216C58.6178 18.216 61.8818 19.4747 64.4845 21.992C67.1298 24.5093 68.4525 27.5813 68.4525 31.208C68.4525 36.712 66.8312 41.128 63.5885 44.456C60.3885 47.7413 56.5058 49.384 51.9405 49.384C47.3752 49.384 43.7485 48.0827 41.0605 45.48C38.4152 42.8773 37.0925 39.656 37.0925 35.816C37.0925 30.44 38.7352 26.1733 42.0205 23.016C45.3485 19.816 49.5725 18.216 54.6925 18.216ZM53.4125 23.4C51.4072 23.4 49.7218 24.552 48.3565 26.856C46.9912 29.16 46.2445 32.0613 46.1165 35.56C46.1165 38.0347 46.6072 40.0827 47.5885 41.704C48.6125 43.3253 50.1485 44.136 52.1965 44.136C54.2445 44.136 55.9512 43.0053 57.3165 40.744C58.7245 38.4827 59.4285 35.9013 59.4285 33C59.4285 30.0987 58.9378 27.7947 57.9565 26.088C56.9752 24.296 55.4605 23.4 53.4125 23.4ZM87.9425 18.216C91.8678 18.216 95.1318 19.4747 97.7345 21.992C100.38 24.5093 101.703 27.5813 101.703 31.208C101.703 36.712 100.081 41.128 96.8385 44.456C93.6385 47.7413 89.7558 49.384 85.1905 49.384C80.6252 49.384 76.9985 48.0827 74.3105 45.48C71.6652 42.8773 70.3425 39.656 70.3425 35.816C70.3425 30.44 71.9852 26.1733 75.2705 23.016C78.5985 19.816 82.8225 18.216 87.9425 18.216ZM86.6625 23.4C84.6572 23.4 82.9718 24.552 81.6065 26.856C80.2412 29.16 79.4945 32.0613 79.3665 35.56C79.3665 38.0347 79.8572 40.0827 80.8385 41.704C81.8625 43.3253 83.3985 44.136 85.4465 44.136C87.4945 44.136 89.2012 43.0053 90.5665 40.744C91.9745 38.4827 92.6785 35.9013 92.6785 33C92.6785 30.0987 92.1878 27.7947 91.2065 26.088C90.2252 24.296 88.7105 23.4 86.6625 23.4ZM133.417 25.96C133.417 30.3973 130.771 33.7893 125.481 36.136C125.609 36.904 125.801 37.8213 126.057 38.888C126.825 42.0453 128.105 43.6667 129.897 43.752C130.025 43.752 130.153 43.752 130.281 43.752C133.694 43.752 136.233 40.744 137.897 34.728C138.793 35.5387 139.646 36.7547 140.457 38.376C139.859 40.68 139.006 42.6213 137.897 44.2C136.83 45.7787 135.657 46.9093 134.377 47.592C132.115 48.7867 129.982 49.384 127.977 49.384C123.283 49.384 119.998 46.76 118.121 41.512C117.395 39.4213 116.905 37.288 116.649 35.112C119.081 34.5147 121.001 33.5333 122.409 32.168C123.817 30.76 124.521 29.2667 124.521 27.688C124.521 24.9573 123.155 23.592 120.425 23.592C118.931 23.592 117.651 24.168 116.585 25.32C115.518 26.4293 114.814 27.7733 114.473 29.352C114.217 31.528 113.79 34.9627 113.193 39.656C112.638 44.3067 112.275 47.4213 112.105 49H103.593C106.665 22.8453 108.521 6.78133 109.161 0.807999C110.057 0.466665 111.273 0.295998 112.809 0.295998C116.137 0.295998 117.801 1.27733 117.801 3.24V3.624C116.947 11.3467 116.158 17.256 115.433 21.352C117.779 19.176 120.723 18.088 124.265 18.088C126.91 18.088 129.086 18.7707 130.793 20.136C132.542 21.5013 133.417 23.4427 133.417 25.96ZM160.815 16.744C162.095 14.824 162.735 13.032 162.735 11.368C162.735 9.704 162.265 8.38133 161.327 7.4C160.388 6.41866 159.151 5.928 157.615 5.928C156.079 5.928 154.841 6.312 153.903 7.08C152.964 7.80533 152.495 8.97867 152.495 10.6C152.495 12.1787 153.604 15.0373 155.823 19.176C158.041 23.3147 159.449 25.9813 160.047 27.176C161.668 30.4187 162.479 33.5547 162.479 36.584C162.479 40.3813 161.092 43.4747 158.319 45.864C155.588 48.2107 152.345 49.384 148.591 49.384C144.879 49.384 141.956 48.232 139.823 45.928C137.689 43.5813 136.623 40.8507 136.623 37.736C136.623 31.976 140.185 27.2187 147.311 23.464C144.409 17.7467 142.959 13.7573 142.959 11.496C142.959 8.33867 144.217 5.672 146.735 3.496C149.295 1.27733 152.409 0.167999 156.079 0.167999C159.791 0.167999 162.628 1.10667 164.591 2.984C166.553 4.86133 167.535 7.25067 167.535 10.152C167.535 12.072 166.895 14.2693 165.615 16.744H160.815ZM144.047 41.704C145.199 42.9413 146.585 43.56 148.207 43.56C149.871 43.56 151.151 43.0907 152.047 42.152C152.985 41.1707 153.455 39.7413 153.455 37.864C153.455 36.1573 152.793 34.0667 151.471 31.592C151.3 31.2507 150.98 30.632 150.51 29.736C150.041 28.7973 149.7 28.136 149.487 27.752C144.708 30.2267 142.319 33.3413 142.319 37.096C142.319 39.016 142.895 40.552 144.047 41.704ZM174.465 18.152C177.238 18.152 178.859 18.856 179.329 20.264C181.334 18.856 183.873 18.152 186.945 18.152C190.017 18.152 192.662 19.4107 194.881 21.928C197.099 24.4453 198.208 27.3893 198.208 30.76C198.208 31.2293 198.187 31.72 198.145 32.232C197.675 37.8213 195.798 42.088 192.513 45.032C189.227 47.9333 184.939 49.384 179.649 49.384C178.454 49.384 177.153 49.2347 175.745 48.936L173.697 66.536H165.312C168.043 43.0267 169.878 27.0693 170.817 18.664C171.713 18.3227 172.929 18.152 174.465 18.152ZM189.185 31.208C189.185 29.3307 188.758 27.6667 187.905 26.216C187.051 24.7653 185.729 24.04 183.937 24.04C181.505 24.04 179.649 25.6187 178.369 28.776C177.515 35.0907 177.025 38.76 176.897 39.784C176.854 41.064 177.259 42.024 178.113 42.664C178.966 43.304 180.011 43.624 181.249 43.624C183.425 43.624 185.217 42.6427 186.625 40.68C188.331 38.248 189.185 35.0907 189.185 31.208ZM218.068 18.216C221.993 18.216 225.257 19.4747 227.86 21.992C230.505 24.5093 231.828 27.5813 231.828 31.208C231.828 36.712 230.206 41.128 226.964 44.456C223.764 47.7413 219.881 49.384 215.316 49.384C210.75 49.384 207.124 48.0827 204.436 45.48C201.79 42.8773 200.468 39.656 200.468 35.816C200.468 30.44 202.11 26.1733 205.396 23.016C208.724 19.816 212.948 18.216 218.068 18.216ZM216.788 23.4C214.782 23.4 213.097 24.552 211.732 26.856C210.366 29.16 209.62 32.0613 209.492 35.56C209.492 38.0347 209.982 40.0827 210.964 41.704C211.988 43.3253 213.524 44.136 215.572 44.136C217.62 44.136 219.326 43.0053 220.692 40.744C222.1 38.4827 222.804 35.9013 222.804 33C222.804 30.0987 222.313 27.7947 221.332 26.088C220.35 24.296 218.836 23.4 216.788 23.4ZM249.014 4.456C249.014 4.712 248.438 9.29866 247.286 18.216H256.694V23.144H246.646L246.454 24.744C251.446 28.9253 253.942 33.4907 253.942 38.44C253.942 42.3227 252.939 45.1173 250.934 46.824C248.971 48.5307 246.603 49.384 243.83 49.384C241.056 49.384 239.03 48.6587 237.75 47.208C236.47 45.7147 235.83 43.9227 235.83 41.832C235.83 41.3627 235.872 40.8507 235.958 40.296L237.942 23.272L237.686 23.144H232.502C232.459 22.7173 232.438 22.0347 232.438 21.096C232.438 20.1147 232.63 19.1547 233.014 18.216H238.518L240.566 0.807999C241.462 0.466665 242.656 0.295998 244.15 0.295998C247.392 0.295998 249.014 1.68266 249.014 4.456ZM249.654 38.376C249.654 35.432 248.374 32.5307 245.814 29.672C245.046 36.0293 244.662 39.6987 244.662 40.68C244.662 42.6 245.28 43.56 246.518 43.56C247.414 43.56 248.16 43.1547 248.758 42.344C249.355 41.4907 249.654 40.168 249.654 38.376Z" fill="#FF594F"/>
</svg>
